<svg xmlns="http://www.w3.org/2000/svg" xmlns:xlink="http://www.w3.org/1999/xlink" width="1424" height="700" viewBox="0 0 1424 700">
  <defs>
    <filter id="Rechteck_23" x="22" y="0" width="1384" height="700" filterUnits="userSpaceOnUse">
      <feOffset dx="3" dy="3" input="SourceAlpha"/>
      <feGaussianBlur stdDeviation="6" result="blur"/>
      <feFlood flood-opacity="0.161"/>
      <feComposite operator="in" in2="blur"/>
      <feComposite in="SourceGraphic"/>
    </filter>
    <filter id="Polygon_2" x="0" y="266" width="1423" height="425" filterUnits="userSpaceOnUse">
      <feOffset dy="3" input="SourceAlpha"/>
      <feGaussianBlur stdDeviation="3" result="blur-2"/>
      <feFlood flood-opacity="0.161"/>
      <feComposite operator="in" in2="blur-2"/>
      <feComposite in="SourceGraphic"/>
    </filter>
    <filter id="Polygon_1" x="0" y="9" width="1424" height="425" filterUnits="userSpaceOnUse">
      <feOffset dy="3" input="SourceAlpha"/>
      <feGaussianBlur stdDeviation="3" result="blur-3"/>
      <feFlood flood-opacity="0.161"/>
      <feComposite operator="in" in2="blur-3"/>
      <feComposite in="SourceGraphic"/>
    </filter>
  </defs>
  <g transform="matrix(1, 0, 0, 1, 0, 0)" filter="url(#Rechteck_23)">
    <rect id="Rechteck_23-2" data-name="Rechteck 23" width="1348" height="664" rx="10" transform="translate(37 15)" fill="#d7b377"/>
  </g>
  <g transform="matrix(1, 0, 0, 1, 0, 0)" filter="url(#Polygon_2)">
    <path id="Polygon_2-2" data-name="Polygon 2" d="M697.487,2.9a10,10,0,0,1,10.026,0L1372.8,388.347c8.846,5.125,5.21,18.653-5.013,18.653H37.208c-10.223,0-13.859-13.528-5.013-18.653Z" transform="translate(9 272)" fill="#fff"/>
  </g>
  <g transform="matrix(1, 0, 0, 1, 0, 0)" filter="url(#Polygon_1)">
    <path id="Polygon_1-2" data-name="Polygon 1" d="M697.99,2.9a10,10,0,0,1,10.021,0l665.768,385.445c8.849,5.123,5.214,18.654-5.01,18.654H37.231c-10.225,0-13.859-13.531-5.01-18.654Z" transform="translate(1415 422) rotate(180)" fill="#fff"/>
  </g>
</svg>